# xmcd
#
# Track frame offsets:
#	150
#	15617
#	30100
#	43915
#	64167
#	83610
#	102115
#	119440
#	137645
#	159685
#	180682
#	202315
#	223087
#	246240
#	263425
#	282800
#	303797
#	325112
#
# Disc length: 4617 seconds
#
# Revision: 1
# Processed by: cddbd v1.5.1PL0 Copyright (c) Steve Scherf et al.
# Submitted via: CDex 1.50Beta5
#
DISCID=f7120712
DTITLE=五木ひろし - 五木ひろし全曲集 20世紀メモリアル-ヒットパレード- Disc 2
DYEAR=2000
DGENRE=World
TTITLE0=面影橋
TTITLE1=ねじ子の数え歌
TTITLE2=逢えば星空
TTITLE3=母の手
TTITLE4=大人のつきあい
TTITLE5=俺だけのいい女
TTITLE6=冬の唄
TTITLE7=露地あかり
TTITLE8=雪見酒
TTITLE9=はつこい
TTITLE10=吹上紀行
TTITLE11=弾き語り
TTITLE12=胡蝶蘭
TTITLE13=パパとあそぼう
TTITLE14=恋模様
TTITLE15=桜貝
TTITLE16=月の旅人
TTITLE17=渡月橋
EXTD=
EXTT0=
EXTT1=
EXTT2=
EXTT3=
EXTT4=
EXTT5=
EXTT6=
EXTT7=
EXTT8=
EXTT9=
EXTT10=
EXTT11=
EXTT12=
EXTT13=
EXTT14=
EXTT15=
EXTT16=
EXTT17=
PLAYORDER=
